<svg width="87" height="100" viewBox="0 0 87 100" fill="none" xmlns="http://www.w3.org/2000/svg">
<path fill-rule="evenodd" clip-rule="evenodd" d="M31.9767 33.5455V67H44.7999C47.3917 67 49.5207 66.608 51.1869 65.8239C52.8531 65.0289 54.0837 63.9562 54.8787 62.6058C55.6846 61.2446 56.0875 59.709 56.0875 57.9993C56.0875 56.2678 55.739 54.7976 55.042 53.5888C54.3451 52.38 53.463 51.4489 52.3957 50.7955C51.3394 50.1312 50.2558 49.7718 49.145 49.7173V49.3906C50.1687 49.1293 51.1052 48.7154 51.9547 48.1491C52.815 47.572 53.5011 46.8097 54.0129 45.8622C54.5248 44.9039 54.7807 43.7277 54.7807 42.3338C54.7807 40.6785 54.3941 39.192 53.6209 37.8743C52.8477 36.5457 51.6824 35.4948 50.1251 34.7216C48.5678 33.9375 46.6022 33.5455 44.2281 33.5455H31.9767ZM44.3098 62.6712H37.0243V51.9553H44.4895C45.8399 51.9553 47.0051 52.2166 47.9852 52.7393C48.9762 53.2621 49.7385 53.9645 50.2722 54.8466C50.8058 55.7287 51.0726 56.6979 51.0726 57.7543C51.0726 59.1591 50.5499 60.3298 49.5044 61.2663C48.4589 62.2029 46.7274 62.6712 44.3098 62.6712ZM43.7871 48.0185H37.0243V37.8416H43.9177C45.9215 37.8416 47.408 38.3099 48.3773 39.2464C49.3465 40.183 49.8311 41.3428 49.8311 42.7259C49.8311 43.804 49.5588 44.7405 49.0143 45.5355C48.4807 46.3196 47.7565 46.9295 46.8418 47.3651C45.9379 47.8007 44.9196 48.0185 43.7871 48.0185Z" fill="#64FFDA"/>
<path fill-rule="evenodd" clip-rule="evenodd" d="M43.3013 0L86.6025 25V75L43.3013 100L0 75V25L43.3013 0ZM5 27.8868L43.3013 5.7735L81.6025 27.8868V72.1133L43.3013 94.2265L5 72.1133V27.8868Z" fill="#64FFDA"/>
</svg>
